<?xml version="1.0" encoding="UTF-8" standalone="no"?>
<svg width="512px" height="512px" viewBox="0 0 512 512" version="1.1" xmlns="http://www.w3.org/2000/svg" xmlns:xlink="http://www.w3.org/1999/xlink" xmlns:sketch="http://www.bohemiancoding.com/sketch/ns">
    <!-- Generator: Sketch 3.4.4 (17249) - http://www.bohemiancoding.com/sketch -->
    <title>Untitled</title>
    <desc>Created with Sketch.</desc>
    <defs></defs>
    <g id="Page-1" stroke="none" stroke-width="1" fill="none" fill-rule="evenodd" sketch:type="MSPage">
        <g id="facebook-square-icon" sketch:type="MSLayerGroup" fill="#B5B7B5">
            <path d="M-2.84217094e-14,61.4411198 C-2.84217094e-14,27.5081263 27.5046886,0 61.4411198,0 L450.55888,0 C484.491874,0 512,27.5046886 512,61.4411198 L512,450.55888 C512,484.491874 484.495311,512 450.55888,512 L61.4411198,512 C27.5081263,512 -2.84217094e-14,484.495311 -2.84217094e-14,450.55888 L-2.84217094e-14,61.4411198 Z M340.184233,137.516738 L300.432155,137.516738 C286.400621,137.516738 283.475262,143.264311 283.475262,157.784233 L283.475262,192.862447 L340.184233,192.862447 L334.727456,254.440388 L283.475262,254.440388 L283.475262,438.4 L210.016932,438.4 L210.016932,255.219573 L171.815767,255.219573 L171.815767,192.862447 L210.016932,192.862447 L210.016932,143.753942 C210.016932,97.6652427 234.662524,73.6 289.324738,73.6 L340.184233,73.6 L340.184233,137.516738 L340.184233,137.516738 Z" sketch:type="MSShapeGroup"></path>
        </g>
    </g>
</svg>