<?xml version="1.0" encoding="UTF-8" standalone="no"?>
<svg width="512px" height="512px" viewBox="0 0 512 512" version="1.1" xmlns="http://www.w3.org/2000/svg" xmlns:xlink="http://www.w3.org/1999/xlink" xmlns:sketch="http://www.bohemiancoding.com/sketch/ns">
    <!-- Generator: Sketch 3.4.4 (17249) - http://www.bohemiancoding.com/sketch -->
    <title>Untitled</title>
    <desc>Created with Sketch.</desc>
    <defs></defs>
    <g id="Page-1" stroke="none" stroke-width="1" fill="none" fill-rule="evenodd" sketch:type="MSPage">
        <g id="instagram-7-icon" sketch:type="MSLayerGroup" fill="#B5B7B5">
            <path d="M356.559534,229.993631 L385.97965,229.993631 L385.97965,372.968388 C385.97965,380.138874 380.157515,385.952311 372.968388,385.952311 L139.032854,385.952311 C131.844971,385.952311 126.024078,380.137631 126.024078,372.968388 L126.024078,229.993631 L155.444194,229.993631 C153.300505,238.313631 152.030447,247.006447 152.030447,255.992544 C152.030447,313.426019 198.580194,359.972039 256,359.972039 C313.421049,359.972039 359.968311,313.426019 359.968311,255.992544 C359.968311,247.007689 358.704466,238.314874 356.559534,229.993631 L356.559534,229.993631 Z M256,320.985476 C291.890951,320.985476 320.990447,291.88101 320.990447,255.992544 C320.990447,220.10035 291.890951,191.015767 256,191.015767 C220.106563,191.015767 191.013282,220.10035 191.013282,255.992544 C191.013282,291.88101 220.106563,320.985476 256,320.985476 L256,320.985476 Z M372.968388,126.02532 L333.986796,126.02532 C326.806369,126.02532 320.990447,131.846214 320.990447,139.022913 L320.990447,178.018175 C320.990447,185.189903 326.806369,191.015767 333.986796,191.015767 L372.968388,191.015767 C380.157515,191.015767 385.97965,185.189903 385.97965,178.018175 L385.97965,139.022913 C385.97965,131.846214 380.157515,126.02532 372.968388,126.02532 L372.968388,126.02532 Z M0,61.4411198 C0,27.5081263 27.5046886,0 61.4411198,0 L450.55888,0 C484.491874,0 512,27.5046886 512,61.4411198 L512,450.55888 C512,484.491874 484.495311,512 450.55888,512 L61.4411198,512 C27.5081263,512 0,484.495311 0,450.55888 L0,61.4411198 Z M424.96,126.02532 C424.96,104.491495 407.509748,87.04 385.97965,87.04 L126.024078,87.04 C104.497709,87.04 87.04,104.491495 87.04,126.02532 L87.04,385.952311 C87.04,407.498563 104.497709,424.96 126.024078,424.96 L385.97965,424.96 C407.509748,424.96 424.96,407.498563 424.96,385.952311 L424.96,126.02532 L424.96,126.02532 Z" sketch:type="MSShapeGroup"></path>
        </g>
    </g>
</svg>