<?xml version="1.0" encoding="UTF-8" standalone="no"?>
<svg width="512px" height="512px" viewBox="0 0 512 512" version="1.1" xmlns="http://www.w3.org/2000/svg" xmlns:xlink="http://www.w3.org/1999/xlink" xmlns:sketch="http://www.bohemiancoding.com/sketch/ns">
    <!-- Generator: Sketch 3.4.4 (17249) - http://www.bohemiancoding.com/sketch -->
    <title>Untitled</title>
    <desc>Created with Sketch.</desc>
    <defs></defs>
    <g id="Page-1" stroke="none" stroke-width="1" fill="none" fill-rule="evenodd" sketch:type="MSPage">
        <g id="pinterest-square-icon" sketch:type="MSLayerGroup" fill="#B5B7B5">
            <path d="M0,61.4411198 C0,27.5081263 27.5046886,0 61.4411198,0 L450.55888,0 C484.491874,0 512,27.5046886 512,61.4411198 L512,450.55888 C512,484.491874 484.495311,512 450.55888,512 L61.4411198,512 C27.5081263,512 0,484.495311 0,450.55888 L0,61.4411198 Z M288.621359,343.276117 C266.392854,343.276117 245.487845,331.259029 238.337243,317.616466 C238.337243,317.616466 226.378563,365.044816 223.854602,374.20365 C214.941825,406.547883 188.720466,438.919456 186.687379,441.570175 C185.266951,443.415612 182.129087,442.835262 181.798524,440.39332 C181.230602,436.272466 174.548505,395.456621 182.414913,362.161709 C186.364272,345.44466 208.893515,249.985243 208.893515,249.985243 C208.893515,249.985243 202.32699,236.84101 202.32699,217.411107 C202.32699,186.902369 220.012117,164.127068 242.028117,164.127068 C260.747184,164.127068 269.794175,178.182214 269.794175,195.032233 C269.794175,213.856932 257.808155,242.000777 251.618175,268.081709 C246.452194,289.926214 262.571495,307.736854 284.110291,307.736854 C323.106796,307.736854 349.376621,257.639146 349.376621,198.281942 C349.376621,153.170019 319.00334,119.390447 263.722252,119.390447 C201.28932,119.390447 162.364893,165.962563 162.364893,217.987728 C162.364893,235.918913 167.663845,248.578485 175.954019,258.35868 C179.759223,262.858563 180.29235,264.669204 178.914175,269.832699 C177.910058,273.625476 175.659495,282.740816 174.707573,286.353398 C173.340583,291.574058 169.116583,293.433165 164.402951,291.505709 C135.651417,279.765748 122.246214,248.26532 122.246214,212.857786 C122.246214,154.38167 171.564738,84.2575534 269.370408,84.2575534 C347.97732,84.2575534 399.699262,141.125592 399.699262,202.191534 C399.696777,282.947107 354.799845,343.276117 288.621359,343.276117 L288.621359,343.276117 Z" sketch:type="MSShapeGroup"></path>
        </g>
    </g>
</svg>