<?xml version="1.0" encoding="UTF-8" standalone="no"?>
<svg width="187px" height="32px" viewBox="0 0 187 32" version="1.1" xmlns="http://www.w3.org/2000/svg" xmlns:xlink="http://www.w3.org/1999/xlink" xmlns:sketch="http://www.bohemiancoding.com/sketch/ns">
    <!-- Generator: Sketch 3.4.4 (17249) - http://www.bohemiancoding.com/sketch -->
    <title>Logo</title>
    <desc>Created with Sketch.</desc>
    <defs></defs>
    <g id="Page-1" stroke="none" stroke-width="1" fill="none" fill-rule="evenodd" sketch:type="MSPage">
        <g id="Logo" sketch:type="MSLayerGroup">
            <path d="M16.0629333,24.5445333 L11.9354667,24.5445333 L8.59893333,4.41706667 L8.50293333,4.41706667 L4.608,24.5445333 L0,24.5445333 L5.1024,0.545066667 L12.4944,0.545066667 L15.232,18.368 L15.3605333,18.368 L25.5493333,0.545066667 L33.1013333,0.545066667 L27.9989333,24.5445333 L23.3909333,24.5445333 L28.0746667,4.32106667 L27.9146667,4.32106667 L16.0629333,24.5445333" id="Fill-1" fill="#FFFFFF" sketch:type="MSShapeGroup"></path>
            <path d="M37.3269333,16.1925333 C36.3744,20.6725333 36.4517333,21.664 40.0352,21.664 C43.6192,21.664 44.1184,20.6725333 45.0709333,16.1925333 C46.0362667,11.6485333 45.9658667,10.6245333 42.3829333,10.6245333 C38.7984,10.6245333 38.2933333,11.6485333 37.3269333,16.1925333 L37.3269333,16.1925333 Z M49.1093333,16.1610667 C47.728,22.6565333 46.3898667,24.736 39.3824,24.736 C32.3744,24.736 31.9210667,22.6565333 33.3018667,16.1610667 C34.6896,9.63306667 36.0282667,7.55306667 43.0357333,7.55306667 C50.0432,7.55306667 50.4976,9.63306667 49.1093333,16.1610667 L49.1093333,16.1610667 Z" id="Fill-4" fill="#FFFFFF" sketch:type="MSShapeGroup"></path>
            <path d="M57.9392,7.74506667 L57.3733333,9.95306667 L57.5333333,9.95306667 C58.728,8.09706667 60.5717333,7.55306667 62.5232,7.55306667 C66.0757333,7.55306667 66.4906667,9.66506667 65.8165333,12.8330667 L65.5312,14.1765333 L61.7552,14.1765333 L61.9392,13.3130667 C62.2997333,11.6165333 62.3504,10.6245333 60.4624,10.6245333 C58.0624,10.6245333 57.0661333,12.0005333 56.6677333,14.1765333 L54.4629333,24.5445333 L50.4314667,24.5445333 L54.0032,7.74506667 L57.9392,7.74506667" id="Fill-6" fill="#FFFFFF" sketch:type="MSShapeGroup"></path>
            <path d="M82.6816,3.39306667 L75.8890667,6.14506667 L75.3786667,4.48106667 L81.8,0.769066667 L82.6816,3.39306667 L82.6816,3.39306667 Z M79.9392,14.3370667 C80.6741333,10.8805333 80.216,10.6245333 76.9205333,10.6245333 C73.4330667,10.6245333 73.0522667,11.3610667 72.4192,14.3370667 L79.9392,14.3370667 L79.9392,14.3370667 Z M82.9370667,19.2005333 C81.8144,24.48 78.7205333,24.736 73.9205333,24.736 C67.4885333,24.736 66.6117333,22.688 67.9930667,16.1925333 C69.272,10.1770667 70.7898667,7.55306667 77.5733333,7.55306667 C84.4853333,7.55306667 84.9850667,9.56853333 83.4266667,16.8965333 L71.8752,16.8965333 C71.1061333,20.5125333 70.9573333,21.664 74.5733333,21.664 C76.8128,21.664 78.3744,21.6965333 78.9050667,19.2005333 L82.9370667,19.2005333 L82.9370667,19.2005333 Z" id="Fill-7" fill="#FFFFFF" sketch:type="MSShapeGroup"></path>
            <path d="M92.7008,7.74506667 L92.1637333,10.2730667 L92.2917333,10.2730667 C93.7114667,7.80906667 95.7818667,7.55306667 98.1493333,7.55306667 C102.565867,7.55306667 103.522133,9.37706667 102.6512,13.4725333 L100.297067,24.5445333 L96.2650667,24.5445333 L98.5306667,13.8890667 C99.0474667,11.4565333 98.6805333,10.6245333 96.0885333,10.6245333 C92.5685333,10.6245333 91.7349333,12.2890667 91.0954667,15.2965333 L89.1290667,24.5445333 L85.0976,24.5445333 L88.6693333,7.74506667 L92.7008,7.74506667" id="Fill-8" fill="#FFFFFF" sketch:type="MSShapeGroup"></path>
            <path d="M121.9952,8.57706667 L122.274133,7.26506667 C122.866133,4.48106667 121.818667,4.28906667 117.7872,4.28906667 C113.1472,4.28906667 112.184,5.05706667 111.184,9.76106667 L110.054933,15.0725333 C109.066133,19.8725333 109.4448,20.8005333 114.2768,20.8005333 C117.9888,20.8005333 119.679467,20.6725333 120.407467,17.2485333 L120.6864,15.9370667 L125.2944,15.9370667 L124.961067,17.5045333 C123.519467,24.736 119.445867,24.48 113.439467,24.736 C104.923733,25.0565333 104.011733,22.2725333 105.405867,15.2645333 L106.576,9.76106667 C108.209067,2.08106667 111.552,0.353066667 118.624,0.353066667 C124.608,0.353066667 128.024533,0.385066667 126.8816,7.26506667 L126.6032,8.57706667 L121.9952,8.57706667" id="Fill-10" fill="#B2FF50" sketch:type="MSShapeGroup"></path>
            <path d="M135.706133,25.216 C133.968,29.024 132.567467,32 127.864,32 C127.288,32 126.732267,31.904 126.1632,31.872 L126.8096,28.8325333 C127.090667,28.864 127.365333,28.928 127.653333,28.928 C130.181333,28.928 131.082133,26.4965333 131.849067,24.5445333 L129.8976,24.5445333 L127.933333,7.74506667 L132.093333,7.74506667 L133.307733,22.0485333 L133.371733,22.0485333 L139.6768,7.74506667 L143.772267,7.74506667 L135.706133,25.216" id="Fill-12" fill="#FFFFFF" sketch:type="MSShapeGroup"></path>
            <path d="M148.208533,14.2725333 L149.2,14.2725333 L155.292267,7.74506667 L159.835733,7.74506667 L152.203733,15.6485333 L157.479467,24.5445333 L152.616,24.5445333 L148.614933,17.0245333 L147.623467,17.0245333 L146.024533,24.5445333 L141.992533,24.5445333 L147.095467,0.545066667 L151.126933,0.545066667 L148.208533,14.2725333" id="Fill-14" fill="#FFFFFF" sketch:type="MSShapeGroup"></path>
            <path d="M172.3536,14.3370667 C173.088533,10.8805333 172.630933,10.6245333 169.334933,10.6245333 C165.847467,10.6245333 165.466667,11.3610667 164.8336,14.3370667 L172.3536,14.3370667 L172.3536,14.3370667 Z M175.351467,19.2005333 C174.229333,24.48 171.134933,24.736 166.334933,24.736 C159.902933,24.736 159.026667,22.688 160.408,16.1925333 C161.6864,10.1770667 163.2048,7.55306667 169.988267,7.55306667 C176.900267,7.55306667 177.399467,9.56853333 175.841067,16.8965333 L164.2896,16.8965333 C163.521067,20.5125333 163.371733,21.664 166.988267,21.664 C169.227733,21.664 170.7888,21.6965333 171.32,19.2005333 L175.351467,19.2005333 L175.351467,19.2005333 Z" id="Fill-16" fill="#FFFFFF" sketch:type="MSShapeGroup"></path>
            <path d="M181.576,24.5445333 L177.544533,24.5445333 L182.6464,0.545066667 L186.6784,0.545066667 L181.576,24.5445333" id="Fill-17" fill="#FFFFFF" sketch:type="MSShapeGroup"></path>
        </g>
    </g>
</svg>